<?xml version="1.0" encoding="UTF-8" standalone="no"?><svg
    version="1.2"
    viewBox="0 0 600 600"
    width="600"
    height="600"
    id="svg25"
    sodipodi:docname="1.svg"
    inkscape:version="1.1 (c68e22c387, 2021-05-23)"
    inkscape:export-xdpi="30.719999"
    inkscape:export-ydpi="30.719999" xmlns:inkscape="http://www.inkscape.org/namespaces/inkscape" xmlns:sodipodi="http://sodipodi.sourceforge.net/DTD/sodipodi-0.dtd" xmlns="http://www.w3.org/2000/svg" xmlns:svg="http://www.w3.org/2000/svg" xmlns:rdf="http://www.w3.org/1999/02/22-rdf-syntax-ns#" xmlns:cc="http://creativecommons.org/ns#" xmlns:dc="http://purl.org/dc/elements/1.1/"><defs
    id="defs29" /><sodipodi:namedview
    id="namedview27"
    pagecolor="#ffffff"
    bordercolor="#666666"
    borderopacity="1.0"
    inkscape:pageshadow="2"
    inkscape:pageopacity="0.0"
    inkscape:pagecheckerboard="0"
    showgrid="true"
    inkscape:zoom="0.95341565"
    inkscape:cx="151.56034"
    inkscape:cy="259.59297"
    inkscape:window-width="1920"
    inkscape:window-height="1018"
    inkscape:window-x="-8"
    inkscape:window-y="-8"
    inkscape:window-maximized="1"
    inkscape:current-layer="svg25"
    showguides="true"
    inkscape:guide-bbox="true"><inkscape:grid
    type="xygrid"
    id="grid457" /><sodipodi:guide
    position="300,695"
    orientation="1,0"
    id="guide459" /><sodipodi:guide
    position="210,300"
    orientation="0,-1"
    id="guide461" /></sodipodi:namedview><style
    id="style22">
    tspan { white-space:pre }
    .shp0 { fill: #1e5b88 }
</style><path
    id="多边形 1"
    class="shp0"
    d="M298.57 600C98.57 599.05 -0.95 498.57 0 298.57C0.95 98.57 101.43 -0.95 301.43 0C501.43 0.95 600.95 101.43 600 301.43C599.05 501.43 498.57 600.95 298.57 600Z" /><path
    style="fill:#ffffff;stroke:none;stroke-width:1.26275"
    d="m 221.05627,226.47417 h 6.32076 c 2.38659,-11.80089 13.90553,-18.40079 25.28279,-18.9208 0,-16.51449 -13.36839,-26.6158 -22.75453,-39.10309 -4.98839,-6.63677 -9.35101,-16.01793 -17.69805,-20.18213 -9.27231,-4.62606 -23.91634,2.02533 -27.81119,11.35238 -7.35008,17.60194 15.736,39.01539 25.28294,51.71697 3.38416,4.50257 11.93975,12.89345 11.37728,15.13667 m 136.52722,-16.39801 c 12.33302,1.00646 24.03391,7.22334 26.54708,20.18214 6.49649,-1.08592 9.9424,-6.28314 13.70957,-11.35239 8.48747,-11.42284 31.414,-32.89662 30.00183,-47.93282 -2.01368,-21.44409 -27.20937,-24.38287 -39.33122,-10.07164 -5.72394,6.75621 -10.56939,14.36661 -15.92183,21.42417 -6.62292,8.73364 -14.87759,16.33566 -15.00543,27.75054 m -180.77217,147.58245 16.43376,4.74393 66.99964,0.30154 98.6029,1.26132 v 1.26147 h -5.05648 v 1.26132 h 70.792 c 2.66215,-4.95975 7.95641,-8.15733 9.44945,-13.87643 2.64581,-10.14284 -3.31713,-30.07913 -5.82144,-40.36316 -13.08521,-53.76578 -56.59431,-92.68552 -111.08009,-101.84445 -52.81716,-8.87858 -109.15471,31.45534 -129.65253,77.87804 -10.00336,22.65454 -10.66721,45.11859 -10.66721,69.37642 m 69.5467,-78.92011 c 19.3881,-5.40374 26.85792,24.80025 8.81108,29.5392 -18.33766,4.81608 -26.17151,-24.70164 -8.81108,-29.5392 M 350,280 c 18.40203,-4.95233 26.69745,24.24507 8.84263,29.17825 C 339.40136,314.55059 331.92904,284.8638 350,280 m -187.09437,102.88635 -18.96201,54.23961 6.32062,2.5228 c 1.9479,-8.40209 8.66287,-25.96188 20.96076,-16.78521 4.40351,3.28587 5.84321,11.93897 8.11454,16.78521 6.61921,-3.65412 3.87993,-9.14246 1.66707,-15.13667 -4.60243,-12.46629 -8.80191,-32.06184 -18.10098,-41.62574 m 30.33945,0 -2.52826,55.50109 h 6.32078 l 1.26413,-36.58028 h 1.26411 l 24.01865,37.8416 h 1.26415 l 2.52839,-54.2396 h -6.32076 v 36.58028 h -1.26412 c -5.3795,-11.34633 -15.92387,-32.30429 -26.54707,-39.10309 m 75.8485,0 -18.96201,54.23961 6.32063,2.5228 c 1.94805,-8.40209 8.66319,-25.96188 20.96074,-16.78521 4.40305,3.28587 5.8429,11.93897 8.11456,16.78521 6.61905,-3.65412 3.87962,-9.14246 1.66737,-15.13667 -4.60273,-12.46629 -8.80222,-32.06184 -18.10129,-41.62574 m 30.33945,0 -2.52826,55.50109 h 6.32062 l 1.26428,-36.58028 h 1.26413 l 24.01865,37.8416 h 1.26415 l 2.52824,-54.2396 h -6.32062 v 36.58028 h -1.26413 c -5.37901,-11.34633 -15.92448,-32.30429 -26.54706,-39.10309 m -206.055138,1.26134 c -5.259734,17.75541 6.453421,39.011 8.849028,56.76255 7.81459,-5.15292 11.84581,-22.65456 13.90551,-31.53481 h 1.26413 l 11.37726,29.01201 c 7.45351,-9.98267 9.44695,-27.16148 12.81899,-39.1031 1.62926,-5.76965 3.95768,-11.19983 -2.70583,-13.87518 l -8.84902,35.31879 -12.6414,-26.48921 -11.37728,29.01202 h -1.26412 l -8.849005,-39.10307 h -2.528263 m 341.318248,0.93599 c -23.72414,9.05678 -18.3742,65.62621 11.35844,53.2924 21.71918,-9.00888 17.30353,-64.23363 -11.35844,-53.2924 m -89.75404,0.32548 v 52.97828 c 21.32869,-0.0591 48.7693,-27.99656 27.67342,-47.64903 -7.44199,-6.93379 -18.31246,-5.32925 -27.67342,-5.32925 m 41.71671,0 1.26413,52.97828 h 6.32077 l -1.26413,-46.67135 c 19.69788,3.13069 3.17796,14.11607 4.86305,23.96626 1.32991,7.7715 8.52291,17.4413 12.83484,23.96641 h 2.5284 c 4.13745,-10.4758 -5.90494,-14.36846 -7.0501,-23.96641 -0.57025,-4.7755 3.65708,-9.13376 4.28159,-13.87519 2.11244,-16.03737 -11.8413,-16.398 -23.77855,-16.398 m 82.1693,0 1.26411,52.97828 h 6.32063 v -52.97828 h -7.58474 m 20.22627,0 v 52.97828 c 21.32854,-0.0591 48.76931,-27.99656 27.67326,-47.64903 -7.44199,-6.93379 -18.3123,-5.32925 -27.67326,-5.32925 m -50.56448,5.64851 c 18.99126,-4.02143 19.70549,38.04454 2.52576,41.68126 -18.99124,4.02126 -19.70548,-38.04472 -2.52576,-41.68126 m -87.22702,39.76135 v -39.10293 c 28.30026,0.58659 25.62785,36.48308 0,39.10293 m 144.11213,0 v -39.10293 c 28.30043,0.58659 25.62802,36.48308 0,39.10293 m -331.20509,-32.79615 5.0565,16.39814 -11.37728,1.26134 6.32078,-17.65948 m 106.18779,0 5.05666,16.39814 -11.37727,1.26134 z"
    id="path588" /><metadata
    id="metadata1286"><rdf:RDF><cc:Work
    rdf:about=""><dc:title>小米-超椭圆-600</dc:title></cc:Work></rdf:RDF></metadata></svg>
