<svg version="1.2" width="600" height="600" xmlns="http://www.w3.org/2000/svg">
    <path
        d="M298.57 600C98.57 599.05-.95 498.57 0 298.57.95 98.57 101.43-.95 301.43 0 501.43.95 600.95 101.43 600 301.43c-.95 200-101.43 299.52-301.43 298.57z"
        fill="#1e5b88" />
    <path
        d="M219.056 226.474h6.321c2.387-11.8 13.906-18.4 25.283-18.92 0-16.515-13.369-26.616-22.755-39.104-4.988-6.636-9.35-16.018-17.698-20.182-9.272-4.626-23.916 2.025-27.81 11.353-7.351 17.601 15.735 39.015 25.282 51.716 3.384 4.503 11.94 12.894 11.377 15.137m136.527-16.398c12.334 1.007 24.034 7.223 26.548 20.182 6.496-1.086 9.942-6.283 13.71-11.352 8.487-11.423 31.413-32.897 30.001-47.933-2.014-21.444-27.21-24.383-39.331-10.072-5.724 6.757-10.57 14.367-15.922 21.425-6.623 8.733-14.878 16.335-15.006 27.75M174.811 357.66l16.434 4.744 67 .301 98.603 1.261v1.262h-5.057v1.261h70.792c2.662-4.96 7.957-8.157 9.45-13.876 2.645-10.143-3.318-30.08-5.822-40.363-13.085-53.766-56.594-92.686-111.08-101.845-52.817-8.878-109.155 31.455-129.652 77.878-10.004 22.655-10.668 45.119-10.668 69.377m69.547-78.92c19.388-5.404 26.858 24.8 8.811 29.539-18.338 4.816-26.171-24.702-8.811-29.54M348 280c18.402-4.952 26.697 24.245 8.843 29.178C337.4 314.551 329.929 284.864 348 280M160.906 382.886l-18.962 54.24 6.32 2.523c1.948-8.402 8.663-25.962 20.961-16.785 4.404 3.285 5.843 11.939 8.115 16.785 6.619-3.654 3.88-9.143 1.667-15.137-4.603-12.466-8.802-32.062-18.101-41.626m30.34 0l-2.53 55.501h6.322l1.264-36.58h1.264l24.018 37.842h1.265l2.528-54.24h-6.32v36.58h-1.265c-5.38-11.346-15.924-32.304-26.547-39.103m75.849 0l-18.962 54.24 6.32 2.523c1.948-8.402 8.663-25.962 20.96-16.785 4.404 3.285 5.844 11.939 8.116 16.785 6.619-3.654 3.88-9.143 1.667-15.137-4.603-12.466-8.802-32.062-18.101-41.626m30.339 0l-2.528 55.501h6.32l1.265-36.58h1.264l24.018 37.842h1.265l2.528-54.24h-6.32v36.58h-1.265c-5.379-11.346-15.924-32.304-26.547-39.103m-206.055 1.262c-5.26 17.755 6.453 39.01 8.849 56.762 7.815-5.153 11.846-22.654 13.905-31.535h1.265l11.377 29.012c7.453-9.982 9.447-27.161 12.819-39.103 1.63-5.77 3.957-11.2-2.706-13.875l-8.849 35.319-12.641-26.49-11.378 29.013h-1.264l-8.849-39.103h-2.528m341.318.936c-23.724 9.056-18.374 65.626 11.359 53.292 21.719-9.009 17.303-64.234-11.359-53.292m-89.754.325v52.978c21.329-.059 48.77-27.996 27.674-47.649-7.442-6.933-18.313-5.329-27.674-5.329m41.717 0l1.264 52.978h6.32l-1.263-46.67c19.697 3.13 3.178 14.115 4.863 23.965 1.33 7.772 8.523 17.442 12.834 23.967h2.529c4.137-10.476-5.905-14.369-7.05-23.967-.57-4.775 3.657-9.133 4.281-13.875 2.113-16.037-11.84-16.398-23.778-16.398m82.17 0l1.263 52.978h6.32V385.41h-7.584m20.226 0v52.978c21.329-.059 48.77-27.996 27.674-47.649-7.442-6.933-18.313-5.329-27.674-5.329m-50.564 5.649c18.991-4.022 19.705 38.044 2.526 41.68-18.992 4.022-19.706-38.044-2.526-41.68m-87.227 39.761v-39.103c28.3.587 25.628 36.483 0 39.103m144.112 0v-39.103c28.3.587 25.628 36.483 0 39.103M162.17 398.023l5.056 16.398-11.377 1.261 6.32-17.66m106.189 0l5.056 16.399-11.377 1.261z"
        fill="#fff" />
</svg>