<svg height="512" viewBox="0 0 128 128" width="512" xmlns="http://www.w3.org/2000/svg">
    <path
        d="M85.556 78.826l-22.268 9.501a1.866 1.866 0 00-.984 2.448l14.215 33.315c.601 1.409 2.549 1.533 3.325.213l6.228-10.599a1.867 1.867 0 012.04-.87l11.961 2.839c1.49.354 2.748-1.139 2.147-2.548L88.005 79.81a1.868 1.868 0 00-2.449-.984z"
        fill="#96ceb4" />
    <path
        d="M42.888 78.826l22.268 9.501a1.866 1.866 0 01.984 2.448L51.925 124.09c-.601 1.409-2.549 1.533-3.325.213l-6.228-10.599a1.867 1.867 0 00-2.04-.87l-11.961 2.839c-1.49.354-2.748-1.139-2.147-2.548L40.44 79.81a1.866 1.866 0 012.448-.984z"
        fill="#96ceb4" />
    <path
        d="M65.157 88.328l-22.268-9.501a1.865 1.865 0 00-2.448.984L33.276 96.6c.122.006.237.036.361.036a7.496 7.496 0 016.931 4.64 7.497 7.497 0 009.788 4.074l.104-.043a7.496 7.496 0 018.158 1.63l.079.08c.118.118.256.202.38.31l7.062-16.551a1.864 1.864 0 00-.982-2.448z"
        fill="#71a58a" />
    <path
        d="M88.005 79.81a1.866 1.866 0 00-2.448-.984l-22.268 9.501a1.866 1.866 0 00-.984 2.448l6.947 16.282c.016-.015.035-.025.05-.041a7.497 7.497 0 018.182-1.62 7.496 7.496 0 009.802-4.041l.043-.104a7.497 7.497 0 016.921-4.616h.113c.27 0 .525-.052.787-.079z"
        fill="#71a58a" />
    <path
        d="M112.241 58.512a7.496 7.496 0 000-10.602 7.497 7.497 0 01-1.62-8.182 7.496 7.496 0 00-4.041-9.802l-.104-.043a7.497 7.497 0 01-4.616-6.921v-.112a7.498 7.498 0 00-7.497-7.497 7.496 7.496 0 01-6.931-4.64 7.497 7.497 0 00-9.788-4.074l-.105.041a7.496 7.496 0 01-8.158-1.63l-.08-.08a7.496 7.496 0 00-10.602 0 7.497 7.497 0 01-8.182 1.62 7.5 7.5 0 00-9.803 4.041l-.043.104a7.497 7.497 0 01-6.921 4.616h-.112a7.498 7.498 0 00-7.497 7.497 7.496 7.496 0 01-4.64 6.931 7.497 7.497 0 00-4.074 9.788l.043.104a7.496 7.496 0 01-1.63 8.158l-.08.08a7.496 7.496 0 000 10.602 7.497 7.497 0 011.62 8.182 7.497 7.497 0 004.04 9.802l.104.043a7.497 7.497 0 014.616 6.921v.113a7.498 7.498 0 007.497 7.497 7.496 7.496 0 016.931 4.64 7.497 7.497 0 009.788 4.074l.104-.043a7.496 7.496 0 018.158 1.63l.08.08a7.496 7.496 0 0010.602 0 7.497 7.497 0 018.182-1.62 7.497 7.497 0 009.802-4.04l.043-.104a7.497 7.497 0 016.921-4.616h.112a7.498 7.498 0 007.497-7.497 7.496 7.496 0 014.64-6.931 7.497 7.497 0 004.074-9.788l-.043-.104a7.496 7.496 0 011.63-8.158z"
        fill="#ff6f69" />
    <circle cx="64" cy="53.211" fill="#96ceb4" r="36.025" />
    <path
        d="M64 16.296c-20.355 0-36.915 16.56-36.915 36.914 0 20.355 16.56 36.915 36.915 36.915s36.915-16.56 36.915-36.915c0-20.354-16.56-36.914-36.915-36.914zm0 71.15c-18.877 0-34.235-15.358-34.235-34.235S45.123 18.977 64 18.977s34.235 15.357 34.235 34.234S82.877 87.446 64 87.446z"
        fill="gold" />
    <circle cx="64" cy="53.211" fill="#e05858" r="26.935" />
    <path
        d="M70.724 67.991c0 2.187-.121 4.071-1.58 5.469-1.033 1.094-2.309 1.216-3.281 1.216a7.642 7.642 0 01-1.945-.243c-3.221-.973-3.221-4.132-3.221-6.26V45.446H57.78c-1.094 0-2.31-.061-3.281-.972-.669-.608-1.033-1.52-1.033-2.371 0-.912.425-1.822.911-2.369.608-.669 1.033-.73 2.735-1.155 1.398-.304 2.613-.973 3.403-2.614.365-.668.608-1.457.972-2.126 1.337-2.187 3.585-2.187 4.193-2.187.911 0 2.066.121 3.099.91 1.883 1.459 1.883 3.526 1.945 5.348z"
        fill="gold" />
</svg>