<svg height="512" viewBox="0 0 128 128" width="512" xmlns:xlink="http://www.w3.org/1999/xlink"
    xmlns="http://www.w3.org/2000/svg">
    <defs>
        <radialGradient xlink:href="#a" id="b" cx="62.095" cy="53.164" fx="62.095" fy="53.164"
            r="8.662" gradientTransform="matrix(1 0 0 2.48735 0 -79.073)"
            gradientUnits="userSpaceOnUse" />
        <linearGradient id="a">
            <stop offset="0" stop-color="#803300" />
            <stop offset="1" stop-color="#803300" stop-opacity="0" />
        </linearGradient>
        <filter id="c" x="-.002" y="-.001" width="1.004" height="1.002"
            color-interpolation-filters="sRGB">
            <feGaussianBlur stdDeviation=".014" />
        </filter>
    </defs>
    <path
        d="M85.556 78.826l-22.268 9.501a1.866 1.866 0 00-.984 2.448l14.215 33.315c.601 1.409 2.549 1.533 3.325.213l6.228-10.599a1.867 1.867 0 012.04-.87l11.961 2.839c1.49.354 2.748-1.139 2.147-2.548L88.005 79.81a1.868 1.868 0 00-2.449-.984z"
        fill="#96ceb4" />
    <path
        d="M42.888 78.826l22.268 9.501a1.866 1.866 0 01.984 2.448L51.925 124.09c-.601 1.409-2.549 1.533-3.325.213l-6.228-10.599a1.867 1.867 0 00-2.04-.87l-11.961 2.839c-1.49.354-2.748-1.139-2.147-2.548L40.44 79.81a1.866 1.866 0 012.448-.984z"
        fill="#96ceb4" />
    <path
        d="M65.157 88.328l-22.268-9.501a1.865 1.865 0 00-2.448.984L33.276 96.6c.122.006.237.036.361.036a7.496 7.496 0 016.931 4.64 7.497 7.497 0 009.788 4.074l.104-.043a7.496 7.496 0 018.158 1.63l.079.08c.118.118.256.202.38.31l7.062-16.551a1.864 1.864 0 00-.982-2.448z"
        fill="#71a58a" />
    <path
        d="M88.005 79.81a1.866 1.866 0 00-2.448-.984l-22.268 9.501a1.866 1.866 0 00-.984 2.448l6.947 16.282c.016-.015.035-.025.05-.041a7.497 7.497 0 018.182-1.62 7.496 7.496 0 009.802-4.041l.043-.104a7.497 7.497 0 016.921-4.616h.113c.27 0 .525-.052.787-.079z"
        fill="#71a58a" />
    <path
        d="M112.241 58.512a7.496 7.496 0 000-10.602 7.497 7.497 0 01-1.62-8.182 7.496 7.496 0 00-4.041-9.802l-.104-.043a7.497 7.497 0 01-4.616-6.921v-.112a7.498 7.498 0 00-7.497-7.497 7.496 7.496 0 01-6.931-4.64 7.497 7.497 0 00-9.788-4.074l-.105.041a7.496 7.496 0 01-8.158-1.63l-.08-.08a7.496 7.496 0 00-10.602 0 7.497 7.497 0 01-8.182 1.62 7.5 7.5 0 00-9.803 4.041l-.043.104a7.497 7.497 0 01-6.921 4.616h-.112a7.498 7.498 0 00-7.497 7.497 7.496 7.496 0 01-4.64 6.931 7.497 7.497 0 00-4.074 9.788l.043.104a7.496 7.496 0 01-1.63 8.158l-.08.08a7.496 7.496 0 000 10.602 7.497 7.497 0 011.62 8.182 7.497 7.497 0 004.04 9.802l.104.043a7.497 7.497 0 014.616 6.921v.113a7.498 7.498 0 007.497 7.497 7.496 7.496 0 016.931 4.64 7.497 7.497 0 009.788 4.074l.104-.043a7.496 7.496 0 018.158 1.63l.08.08a7.496 7.496 0 0010.602 0 7.497 7.497 0 018.182-1.62 7.497 7.497 0 009.802-4.04l.043-.104a7.497 7.497 0 016.921-4.616h.112a7.498 7.498 0 007.497-7.497 7.496 7.496 0 014.64-6.931 7.497 7.497 0 004.074-9.788l-.043-.104a7.496 7.496 0 011.63-8.158z"
        fill="#ff6f69" />
    <circle cx="64" cy="53.211" fill="#96ceb4" r="36.025" />
    <path
        d="M64 16.296c-20.355 0-36.915 16.56-36.915 36.914 0 20.355 16.56 36.915 36.915 36.915s36.915-16.56 36.915-36.915c0-20.354-16.56-36.914-36.915-36.914zm0 71.15c-18.877 0-34.235-15.358-34.235-34.235S45.123 18.977 64 18.977s34.235 15.357 34.235 34.234S82.877 87.446 64 87.446z"
        fill="#d2a562" />
    <circle cx="64" cy="53.211" fill="#e05858" r="26.935" />
    <path
        d="M75.778 60.687c0 6.516-2.628 11.23-12.19 11.23-3.019 0-7.213-.424-9.563-3.444-1.007-1.27-1.621-3.178-1.621-5.297 0-3.286 1.733-5.138 4.53-5.138 1.733 0 3.131.847 3.69 2.383.224.636.281.9.448 3.125.055.848.224 2.543 2.46 2.543 2.573 0 3.019-2.067 3.019-5.563 0-3.444-.672-4.556-2.126-4.926-.336-.106-2.124-.318-2.517-.424-1.287-.37-2.18-1.378-2.18-3.02 0-.212 0-.742.278-1.326.505-1.376 1.678-1.642 2.574-1.746.559-.052 1.062-.052 1.566-.106 1.79-.318 2.126-1.326 2.126-4.08 0-2.49-.336-4.926-2.795-4.926-1.848 0-2.126 1.428-2.238 1.96-.112.582-.167 1.166-.336 1.746-.112.266-1.007 2.648-4.028 2.648-2.46 0-4.137-1.642-4.137-4.078 0-1.696.614-3.814 2.068-5.352 2.236-2.384 5.76-2.806 9.116-2.806 7.159 0 11.352 2.914 11.352 9.958 0 5.458-2.236 6.836-4.026 8.002 1.678.796 4.475 2.12 4.53 8.637z"
        fill="#d2a562" />
</svg>