<svg height="512" viewBox="0 0 128 128" width="512" xmlns="http://www.w3.org/2000/svg">
    <path
        d="M85.556 78.826l-22.268 9.501a1.866 1.866 0 00-.984 2.448l14.215 33.315c.601 1.409 2.549 1.533 3.325.213l6.228-10.599a1.867 1.867 0 012.04-.87l11.961 2.839c1.49.354 2.748-1.139 2.147-2.548L88.005 79.81a1.868 1.868 0 00-2.449-.984z"
        fill="#96ceb4" />
    <path
        d="M42.888 78.826l22.268 9.501a1.866 1.866 0 01.984 2.448L51.925 124.09c-.601 1.409-2.549 1.533-3.325.213l-6.228-10.599a1.867 1.867 0 00-2.04-.87l-11.961 2.839c-1.49.354-2.748-1.139-2.147-2.548L40.44 79.81a1.866 1.866 0 012.448-.984z"
        fill="#96ceb4" />
    <path
        d="M65.157 88.328l-22.268-9.501a1.865 1.865 0 00-2.448.984L33.276 96.6c.122.006.237.036.361.036a7.496 7.496 0 016.931 4.64 7.497 7.497 0 009.788 4.074l.104-.043a7.496 7.496 0 018.158 1.63l.079.08c.118.118.256.202.38.31l7.062-16.551a1.864 1.864 0 00-.982-2.448z"
        fill="#71a58a" />
    <path
        d="M88.005 79.81a1.866 1.866 0 00-2.448-.984l-22.268 9.501a1.866 1.866 0 00-.984 2.448l6.947 16.282c.016-.015.035-.025.05-.041a7.497 7.497 0 018.182-1.62 7.496 7.496 0 009.802-4.041l.043-.104a7.497 7.497 0 016.921-4.616h.113c.27 0 .525-.052.787-.079z"
        fill="#71a58a" />
    <path
        d="M112.241 58.512a7.496 7.496 0 000-10.602 7.497 7.497 0 01-1.62-8.182 7.496 7.496 0 00-4.041-9.802l-.104-.043a7.497 7.497 0 01-4.616-6.921v-.112a7.498 7.498 0 00-7.497-7.497 7.496 7.496 0 01-6.931-4.64 7.497 7.497 0 00-9.788-4.074l-.105.041a7.496 7.496 0 01-8.158-1.63l-.08-.08a7.496 7.496 0 00-10.602 0 7.497 7.497 0 01-8.182 1.62 7.5 7.5 0 00-9.803 4.041l-.043.104a7.497 7.497 0 01-6.921 4.616h-.112a7.498 7.498 0 00-7.497 7.497 7.496 7.496 0 01-4.64 6.931 7.497 7.497 0 00-4.074 9.788l.043.104a7.496 7.496 0 01-1.63 8.158l-.08.08a7.496 7.496 0 000 10.602 7.497 7.497 0 011.62 8.182 7.497 7.497 0 004.04 9.802l.104.043a7.497 7.497 0 014.616 6.921v.113a7.498 7.498 0 007.497 7.497 7.496 7.496 0 016.931 4.64 7.497 7.497 0 009.788 4.074l.104-.043a7.496 7.496 0 018.158 1.63l.08.08a7.496 7.496 0 0010.602 0 7.497 7.497 0 018.182-1.62 7.497 7.497 0 009.802-4.04l.043-.104a7.497 7.497 0 016.921-4.616h.112a7.498 7.498 0 007.497-7.497 7.496 7.496 0 014.64-6.931 7.497 7.497 0 004.074-9.788l-.043-.104a7.496 7.496 0 011.63-8.158z"
        fill="#ff6f69" />
    <circle cx="64" cy="53.211" fill="#96ceb4" r="36.025" />
    <path
        d="M64 16.296c-20.355 0-36.915 16.56-36.915 36.914 0 20.355 16.56 36.915 36.915 36.915s36.915-16.56 36.915-36.915c0-20.354-16.56-36.914-36.915-36.914zm0 71.15c-18.877 0-34.235-15.358-34.235-34.235S45.123 18.977 64 18.977s34.235 15.357 34.235 34.234S82.877 87.446 64 87.446z"
        fill="#efefef" />
    <circle cx="64" cy="53.211" fill="#e05858" r="26.935" />
    <path
        d="M63.236 65.223h7.45c1.12 0 2.386 0 3.263 1.183.535.59.73 1.396.73 2.259 0 .322 0 .7-.195 1.289-.682 2.259-2.679 2.259-3.993 2.259h-13.34c-1.022-.053-2.096-.108-3.068-.969-.584-.536-1.072-1.396-1.072-2.632 0-1.829.78-2.904 3.166-6.239l5.5-7.526c3.458-4.785 5.162-7.15 5.162-10.698 0-2.634-1.218-3.872-2.775-3.872-.828 0-2.24.323-2.484 2.259-.146.862-.097 1.721-.242 2.527-.39 2.095-1.754 3.387-3.603 3.387-1.753 0-3.75-1.236-3.75-4.516 0-.322 0-4.193 2.241-6.612 2.728-2.957 6.768-2.957 8.034-2.957 7.692 0 10.37 5.376 10.37 10.162 0 5.59-2.775 9.247-5.21 12.472z"
        fill="#efefef" />
</svg>